<?xml version="1.0" encoding="UTF-8"?>
<svg xmlns="http://www.w3.org/2000/svg" xmlns:xlink="http://www.w3.org/1999/xlink" width="29px" height="40px" viewBox="0 0 29 40" version="1.1">
<defs>
<linearGradient id="linear0" gradientUnits="userSpaceOnUse" x1="24" y1="0" x2="24" y2="48.033" gradientTransform="matrix(0.604167,0,0,0.833333,0,0)">
<stop offset="0" style="stop-color:rgb(96.078431%,92.156863%,92.156863%);stop-opacity:1;"/>
<stop offset="1" style="stop-color:rgb(83.921569%,65.882353%,62.745098%);stop-opacity:1;"/>
</linearGradient>
</defs>
<g id="surface1">
<path style=" stroke:none;fill-rule:nonzero;fill:url(#linear0);" d="M 29 20 C 29 16.167969 28.878906 12.667969 28.457031 10.667969 C 27.972656 8.332031 27.429688 6.167969 25.917969 4.25 C 24.105469 2 22.476562 1.25 20.117188 0.582031 C 18.367188 0.0820312 16.3125 0 15.042969 0 C 14.679688 0 14.257812 0 13.894531 0 C 12.628906 0 10.574219 0.0820312 8.820312 0.582031 C 6.464844 1.25 4.832031 2 3.019531 4.25 C 1.570312 6.167969 1.085938 8.332031 0.542969 10.667969 C 0.121094 12.667969 0 16.167969 0 20 C 0 23.832031 0.121094 27.332031 0.542969 29.332031 C 1.027344 31.667969 1.570312 33.832031 3.082031 35.75 C 4.894531 38 6.523438 38.75 8.882812 39.417969 C 10.933594 40 13.351562 40 14.5 40 C 15.648438 40.082031 18.066406 40 20.117188 39.417969 C 22.476562 38.75 24.105469 38 25.917969 35.75 C 27.429688 33.832031 27.972656 31.667969 28.457031 29.332031 C 28.878906 27.332031 29 23.832031 29 20 Z M 29 20 "/>
<path style=" stroke:none;fill-rule:nonzero;fill:rgb(0%,0%,0%);fill-opacity:1;" d="M 12.386719 22.582031 L 16.855469 22.582031 L 14.679688 13.25 L 14.558594 13.25 Z M 12.144531 10.832031 C 12.566406 9.332031 13.472656 8.167969 14.621094 8.167969 C 15.890625 8.167969 16.734375 9.332031 17.097656 10.832031 L 21.691406 28.417969 C 21.808594 28.917969 21.871094 29.417969 21.871094 29.582031 C 21.871094 30.832031 21.144531 31.75 20.238281 31.75 C 19.273438 31.75 18.789062 31 18.546875 30.082031 L 17.824219 27.082031 L 11.296875 27.082031 L 10.574219 30.082031 C 10.332031 31.082031 9.847656 31.832031 8.882812 31.832031 C 7.914062 31.832031 7.128906 30.832031 7.128906 29.582031 C 7.128906 29.082031 7.25 28.667969 7.308594 28.5 C 7.371094 28.417969 12.144531 10.832031 12.144531 10.832031 Z M 12.144531 10.832031 "/>
</g>
</svg>
